<?xml version="1.0" encoding="utf-8"?>
<!-- Generator: Adobe Illustrator 27.5.0, SVG Export Plug-In . SVG Version: 6.00 Build 0)  -->
<svg version="1.1" id="Layer_1" xmlns="http://www.w3.org/2000/svg" xmlns:xlink="http://www.w3.org/1999/xlink" x="0px" y="0px"
	 viewBox="0 0 48 48" style="enable-background:new 0 0 48 48;" xml:space="preserve">
<style type="text/css">
	.st0{fill:#FFFFFF;}
</style>
<path class="st0" d="M9.5,14.2V7.7L16,11L9.5,14.2z M33.8,14.2V7.7l6.5,3.2L33.8,14.2z M22.5,12.6V6.1L29,9.4L22.5,12.6z M19,41.9
	c-1.6-0.1-3.2-0.3-4.8-0.6c-1.6-0.3-3-0.7-4.2-1.1s-2.2-1-3-1.6C6.4,38,6,37.4,6,36.7V20.5c0-0.8,0.5-1.4,1.4-2.1s2.2-1.2,3.8-1.7
	c1.6-0.5,3.5-0.9,5.7-1.2s4.5-0.4,7-0.4s4.8,0.1,7,0.4s4.1,0.7,5.7,1.2c1.6,0.5,2.9,1.1,3.8,1.7s1.4,1.3,1.4,2.1v16.2
	c0,0.7-0.4,1.3-1.1,1.9c-0.8,0.6-1.7,1.1-3,1.6s-2.6,0.8-4.2,1.1c-1.6,0.3-3.2,0.5-4.8,0.6v-8.8H19V41.9z M24,23.2
	c2.9,0,5.5-0.2,7.8-0.7c2.3-0.4,4.5-1.1,6.6-2c-0.7-0.7-2.3-1.4-4.8-1.9s-5.7-0.9-9.6-0.9s-7,0.3-9.6,0.9s-4.1,1.2-4.8,1.9
	c2.2,0.9,4.4,1.5,6.6,2C18.5,23,21.1,23.2,24,23.2z"/>
</svg>
